<svg width="58" height="58" viewBox="0 0 58 58" fill="none" xmlns="http://www.w3.org/2000/svg">
<g id="Group 1000003154">
<circle id="Ellipse 14" cx="29" cy="29" r="29" fill="#EBEBEB"/>
<path id="Path 20217" d="M20.1393 28.9988H13V30.437C13 30.437 15.1574 31.0534 15.1574 32.5943V36.138C15.1592 37.0775 15.5333 37.9779 16.1976 38.6421C16.8618 39.3064 17.7623 39.6804 18.7017 39.6822H40.121C41.0605 39.6804 41.9608 39.3064 42.6251 38.6421C43.2894 37.9778 43.6634 37.0774 43.6652 36.138V32.5938C43.6652 31.0529 45.8226 30.4365 45.8226 30.4365V28.9988H27.2796" stroke="#363636" stroke-width="0.785973"/>
<path id="Line 481" d="M18.727 39.6411L17.957 42.4646" stroke="#363636" stroke-width="0.785973"/>
<path id="Line 482" d="M40.0312 39.6411L40.8012 42.4646" stroke="#363636" stroke-width="0.785973"/>
<path id="Path 20218" d="M20.1406 35.4194H27.2799V26.8928H20.1406V35.4194Z" stroke="#363636" stroke-width="0.785973"/>
<path id="Line 483" d="M38.7454 18.3369H35.9219" stroke="#363636" stroke-width="0.785973"/>
<path id="Path 20219" d="M37.2461 18.3147V16.8765C37.2455 16.4986 37.3195 16.1243 37.4638 15.775C37.6081 15.4257 37.82 15.1084 38.0872 14.8411C38.3545 14.5739 38.6718 14.362 39.0211 14.2177C39.3704 14.0734 39.7447 13.9994 40.1226 14H40.8417C41.2196 13.9994 41.5939 14.0734 41.9432 14.2177C42.2924 14.362 42.6097 14.5739 42.877 14.8411C43.1442 15.1083 43.356 15.4257 43.5004 15.7749C43.6447 16.1242 43.7187 16.4985 43.7181 16.8764V28.999" stroke="#363636" stroke-width="0.785973"/>
<path id="Line 484" d="M38.7461 20.3901V22.7002" stroke="#363636" stroke-width="0.785973"/>
<path id="Line 485" d="M35.9219 20.3901V22.7002" stroke="#363636" stroke-width="0.785973"/>
<path id="Line 486" d="M37.207 23.9839V26.294" stroke="#363636" stroke-width="0.785973"/>
<path id="Line 487" d="M34.3828 23.9839V26.294" stroke="#363636" stroke-width="0.785973"/>
<path id="Line 488" d="M40.0312 23.9839V26.294" stroke="#363636" stroke-width="0.785973"/>
</g>
</svg>
