<svg width="58" height="58" viewBox="0 0 58 58" fill="none" xmlns="http://www.w3.org/2000/svg">
<g id="Group 14447">
<circle id="Ellipse 8" cx="29" cy="29" r="29" fill="#EBEBEB"/>
<path id="Path 20200" d="M14 30.2219V42.0001H16.0462L17.4436 39.9539H41.0001L42.3975 42.0001H44.4937V30.2219H14Z" stroke="#222222" stroke-width="0.820236"/>
<path id="Path 20201" d="M43.0931 24.682V15H29.2188" stroke="#222222" stroke-width="0.820236"/>
<path id="Path 20202" d="M15.3477 24.682V15H29.222" stroke="#222222" stroke-width="0.820236"/>
<path id="Path 20203" d="M20.8879 21.2383H18.143L16.0469 30.2217" stroke="#222222" stroke-width="0.820236"/>
<path id="Path 20204" d="M42.3957 30.2217L40.2996 21.2383H37.5547" stroke="#222222" stroke-width="0.820236"/>
<path id="Path 20205" d="M29.2213 21.8871C29.2216 22.0707 29.1857 22.2525 29.1155 22.4222C29.0454 22.5919 28.9425 22.746 28.8127 22.8759C28.6829 23.0057 28.5287 23.1086 28.359 23.1787C28.1893 23.2488 28.0075 23.2848 27.8239 23.2844H22.2841C22.1005 23.2848 21.9187 23.2488 21.749 23.1787C21.5793 23.1086 21.4251 23.0057 21.2953 22.8759C21.1655 22.746 21.0625 22.5919 20.9924 22.4222C20.9223 22.2525 20.8864 22.0707 20.8867 21.8871V20.4897C20.8864 20.3061 20.9223 20.1242 20.9924 19.9545C21.0625 19.7849 21.1655 19.6307 21.2953 19.5009C21.4251 19.371 21.5793 19.2681 21.749 19.198C21.9187 19.1279 22.1005 19.092 22.2841 19.0923H27.8234C28.007 19.092 28.1888 19.1279 28.3585 19.198C28.5282 19.2681 28.6823 19.371 28.8122 19.5009C28.942 19.6307 29.0449 19.7849 29.115 19.9545C29.1852 20.1242 29.2211 20.3061 29.2208 20.4897L29.2213 21.8871Z" stroke="#222222" stroke-width="0.820236"/>
<path id="Path 20206" d="M37.5533 21.8871C37.5536 22.0707 37.5177 22.2525 37.4476 22.4222C37.3775 22.5919 37.2746 22.746 37.1447 22.8759C37.0149 23.0057 36.8607 23.1086 36.6911 23.1787C36.5214 23.2488 36.3395 23.2848 36.1559 23.2844H30.6163C30.4327 23.2848 30.2508 23.2489 30.0811 23.1788C29.9114 23.1087 29.7572 23.0057 29.6274 22.8759C29.4975 22.7461 29.3946 22.5919 29.3245 22.4222C29.2544 22.2525 29.2184 22.0707 29.2188 21.8871V20.4897C29.2184 20.3061 29.2544 20.1242 29.3245 19.9545C29.3946 19.7849 29.4975 19.6307 29.6273 19.5009C29.7572 19.371 29.9113 19.2681 30.081 19.198C30.2507 19.1279 30.4325 19.092 30.6161 19.0923H36.1554C36.339 19.092 36.5208 19.1279 36.6905 19.198C36.8602 19.2681 37.0144 19.371 37.1442 19.5009C37.274 19.6307 37.377 19.7849 37.4471 19.9545C37.5172 20.1242 37.5531 20.3061 37.5528 20.4897L37.5533 21.8871Z" stroke="#222222" stroke-width="0.820236"/>
</g>
</svg>
