<svg width="990" height="110" viewBox="0 0 990 110" fill="none" xmlns="http://www.w3.org/2000/svg">
<rect x="0.5" y="0.5" width="139" height="109" rx="9.5" fill="white"/>
<path d="M93.4375 39.8281H91.4844V33.1875C91.4844 32.4623 91.1963 31.7668 90.6835 31.254C90.1707 30.7412 89.4752 30.4531 88.75 30.4531H85.2344V28.5C85.2344 27.7748 84.9463 27.0793 84.4335 26.5665C83.9207 26.0537 83.2252 25.7656 82.5 25.7656H77.8125C77.0873 25.7656 76.3918 26.0537 75.879 26.5665C75.3662 27.0793 75.0781 27.7748 75.0781 28.5V39.8281H64.9219V28.5C64.9219 27.7748 64.6338 27.0793 64.121 26.5665C63.6082 26.0537 62.9127 25.7656 62.1875 25.7656H57.5C56.7748 25.7656 56.0793 26.0537 55.5665 26.5665C55.0537 27.0793 54.7656 27.7748 54.7656 28.5V30.4531H51.25C50.5248 30.4531 49.8293 30.7412 49.3165 31.254C48.8037 31.7668 48.5156 32.4623 48.5156 33.1875V39.8281H46.5625C46.2517 39.8281 45.9536 39.9516 45.7339 40.1714C45.5141 40.3911 45.3906 40.6892 45.3906 41C45.3906 41.3108 45.5141 41.6089 45.7339 41.8286C45.9536 42.0484 46.2517 42.1719 46.5625 42.1719H48.5156V48.8125C48.5156 49.5377 48.8037 50.2332 49.3165 50.746C49.8293 51.2588 50.5248 51.5469 51.25 51.5469H54.7656V53.5C54.7656 54.2252 55.0537 54.9207 55.5665 55.4335C56.0793 55.9463 56.7748 56.2344 57.5 56.2344H62.1875C62.9127 56.2344 63.6082 55.9463 64.121 55.4335C64.6338 54.9207 64.9219 54.2252 64.9219 53.5V42.1719H75.0781V53.5C75.0781 54.2252 75.3662 54.9207 75.879 55.4335C76.3918 55.9463 77.0873 56.2344 77.8125 56.2344H82.5C83.2252 56.2344 83.9207 55.9463 84.4335 55.4335C84.9463 54.9207 85.2344 54.2252 85.2344 53.5V51.5469H88.75C89.4752 51.5469 90.1707 51.2588 90.6835 50.746C91.1963 50.2332 91.4844 49.5377 91.4844 48.8125V42.1719H93.4375C93.7483 42.1719 94.0464 42.0484 94.2661 41.8286C94.4859 41.6089 94.6094 41.3108 94.6094 41C94.6094 40.6892 94.4859 40.3911 94.2661 40.1714C94.0464 39.9516 93.7483 39.8281 93.4375 39.8281ZM51.25 49.2031C51.1464 49.2031 51.047 49.162 50.9738 49.0887C50.9005 49.0155 50.8594 48.9161 50.8594 48.8125V33.1875C50.8594 33.0839 50.9005 32.9845 50.9738 32.9113C51.047 32.838 51.1464 32.7969 51.25 32.7969H54.7656V49.2031H51.25ZM62.5781 53.5C62.5781 53.6036 62.537 53.703 62.4637 53.7762C62.3905 53.8495 62.2911 53.8906 62.1875 53.8906H57.5C57.3964 53.8906 57.297 53.8495 57.2238 53.7762C57.1505 53.703 57.1094 53.6036 57.1094 53.5V28.5C57.1094 28.3964 57.1505 28.297 57.2238 28.2238C57.297 28.1505 57.3964 28.1094 57.5 28.1094H62.1875C62.2911 28.1094 62.3905 28.1505 62.4637 28.2238C62.537 28.297 62.5781 28.3964 62.5781 28.5V53.5ZM82.8906 53.5C82.8906 53.6036 82.8495 53.703 82.7762 53.7762C82.703 53.8495 82.6036 53.8906 82.5 53.8906H77.8125C77.7089 53.8906 77.6095 53.8495 77.5363 53.7762C77.463 53.703 77.4219 53.6036 77.4219 53.5V28.5C77.4219 28.3964 77.463 28.297 77.5363 28.2238C77.6095 28.1505 77.7089 28.1094 77.8125 28.1094H82.5C82.6036 28.1094 82.703 28.1505 82.7762 28.2238C82.8495 28.297 82.8906 28.3964 82.8906 28.5V53.5ZM89.1406 48.8125C89.1406 48.9161 89.0995 49.0155 89.0262 49.0887C88.953 49.162 88.8536 49.2031 88.75 49.2031H85.2344V32.7969H88.75C88.8536 32.7969 88.953 32.838 89.0262 32.9113C89.0995 32.9845 89.1406 33.0839 89.1406 33.1875V48.8125Z" fill="#343330"/>
<path d="M59.7045 85C59.5483 84.5218 59.3423 84.0933 59.0866 83.7145C58.8357 83.331 58.535 83.0043 58.1847 82.7344C57.839 82.4645 57.446 82.2585 57.0057 82.1165C56.5653 81.9744 56.0824 81.9034 55.5568 81.9034C54.6951 81.9034 53.9115 82.1259 53.206 82.571C52.5005 83.0161 51.9394 83.6719 51.5227 84.5384C51.1061 85.4048 50.8977 86.4678 50.8977 87.7273C50.8977 88.9867 51.1084 90.0497 51.5298 90.9162C51.9512 91.7827 52.5218 92.4384 53.2415 92.8835C53.9612 93.3286 54.7708 93.5511 55.6705 93.5511C56.5038 93.5511 57.2377 93.3736 57.8722 93.0185C58.5114 92.6586 59.0085 92.152 59.3636 91.4986C59.7235 90.8404 59.9034 90.0663 59.9034 89.1761L60.4432 89.2898H56.0682V87.7273H61.608V89.2898C61.608 90.4877 61.3523 91.5294 60.8409 92.4148C60.3343 93.3002 59.6335 93.9867 58.7386 94.4744C57.8485 94.9574 56.8258 95.1989 55.6705 95.1989C54.3826 95.1989 53.2509 94.8958 52.2756 94.2898C51.3049 93.6837 50.5473 92.822 50.0028 91.7045C49.4631 90.5871 49.1932 89.2614 49.1932 87.7273C49.1932 86.5767 49.3471 85.5421 49.6548 84.6236C49.9673 83.7003 50.4077 82.9143 50.9759 82.2656C51.544 81.617 52.2164 81.1198 52.9929 80.7741C53.7694 80.4285 54.6241 80.2557 55.5568 80.2557C56.3239 80.2557 57.0388 80.3717 57.7017 80.6037C58.3693 80.831 58.9635 81.1553 59.4844 81.5767C60.0099 81.9934 60.4479 82.4929 60.7983 83.0753C61.1487 83.6529 61.3902 84.2945 61.5227 85H59.7045ZM65.4769 99.0909C65.1928 99.0909 64.9395 99.0672 64.717 99.0199C64.4944 98.9773 64.3406 98.9347 64.2553 98.892L64.6815 97.4148C65.0887 97.5189 65.4485 97.5568 65.761 97.5284C66.0735 97.5 66.3505 97.3603 66.592 97.1094C66.8382 96.8632 67.0631 96.4631 67.2667 95.9091L67.5792 95.0568L63.5451 84.0909H65.3633L68.3746 92.7841H68.4883L71.4996 84.0909H73.3178L68.6871 96.5909C68.4788 97.1544 68.2208 97.6207 67.913 97.9901C67.6052 98.3641 67.2478 98.6411 66.8406 98.821C66.4381 99.0009 65.9835 99.0909 65.4769 99.0909ZM75.5302 95V84.0909H77.1495V85.7955H77.2915C77.5188 85.2131 77.8858 84.7609 78.3924 84.4389C78.899 84.1122 79.5075 83.9489 80.2177 83.9489C80.9374 83.9489 81.5363 84.1122 82.0146 84.4389C82.4975 84.7609 82.8739 85.2131 83.1438 85.7955H83.2575C83.5368 85.232 83.9558 84.7846 84.5146 84.4531C85.0733 84.117 85.7433 83.9489 86.5245 83.9489C87.4999 83.9489 88.2977 84.2543 88.918 84.8651C89.5382 85.4711 89.8484 86.4157 89.8484 87.6989V95H88.1722V87.6989C88.1722 86.8939 87.9521 86.3187 87.5117 85.973C87.0714 85.6274 86.5529 85.4545 85.9563 85.4545C85.1893 85.4545 84.5951 85.6866 84.1737 86.1506C83.7522 86.6098 83.5415 87.1922 83.5415 87.8977V95H81.837V87.5284C81.837 86.9081 81.6358 86.4086 81.2333 86.0298C80.8308 85.6463 80.3124 85.4545 79.6779 85.4545C79.2423 85.4545 78.8351 85.5705 78.4563 85.8026C78.0823 86.0346 77.7792 86.3565 77.5472 86.7685C77.32 87.1757 77.2063 87.6468 77.2063 88.1818V95H75.5302Z" fill="#222222"/>
<rect x="0.5" y="0.5" width="139" height="109" rx="9.5" stroke="#BCC0C4"/>
<rect x="170.5" y="0.5" width="139" height="109" rx="9.5" fill="white"/>
<path d="M232.188 44.7871C232.498 44.7871 232.796 44.6636 233.016 44.4439C233.236 44.2241 233.359 43.926 233.359 43.6152V40.6094H246.641V43.9863C246.641 44.2971 246.764 44.5952 246.984 44.815C247.204 45.0347 247.502 45.1582 247.812 45.1582C248.123 45.1582 248.421 45.0347 248.641 44.815C248.861 44.5952 248.984 44.2971 248.984 43.9863V22.25C248.984 21.9392 248.861 21.6411 248.641 21.4214C248.421 21.2016 248.123 21.0781 247.812 21.0781C247.502 21.0781 247.204 21.2016 246.984 21.4214C246.764 21.6411 246.641 21.9392 246.641 22.25V25.7656H233.359V22.25C233.359 21.9392 233.236 21.6411 233.016 21.4214C232.796 21.2016 232.498 21.0781 232.188 21.0781C231.877 21.0781 231.579 21.2016 231.359 21.4214C231.139 21.6411 231.016 21.9392 231.016 22.25V43.6152C231.016 43.926 231.139 44.2241 231.359 44.4439C231.579 44.6636 231.877 44.7871 232.188 44.7871ZM233.359 38.2656V34.3594H246.641V38.2656H233.359ZM246.641 28.1094V32.0156H233.359V28.1094H246.641ZM220.078 48.8125C220.078 48.5017 220.202 48.2036 220.421 47.9839C220.641 47.7641 220.939 47.6406 221.25 47.6406C223.949 47.6406 225.352 48.5762 226.588 49.3984C227.688 50.1309 228.635 50.7656 230.625 50.7656C232.615 50.7656 233.555 50.1328 234.662 49.3984C235.898 48.5742 237.301 47.6406 239.998 47.6406C242.695 47.6406 244.1 48.5762 245.336 49.3984C246.436 50.1309 247.385 50.7656 249.375 50.7656C251.365 50.7656 252.305 50.1328 253.412 49.3984C254.648 48.5742 256.051 47.6406 258.75 47.6406C259.061 47.6406 259.359 47.7641 259.579 47.9839C259.798 48.2036 259.922 48.5017 259.922 48.8125C259.922 49.1233 259.798 49.4214 259.579 49.6411C259.359 49.8609 259.061 49.9844 258.75 49.9844C256.762 49.9844 255.82 50.6172 254.713 51.3516C253.475 52.1758 252.072 53.1094 249.375 53.1094C246.678 53.1094 245.273 52.1738 244.037 51.3516C242.937 50.6191 241.988 49.9844 239.998 49.9844C238.008 49.9844 237.068 50.6172 235.961 51.3516C234.725 52.1758 233.322 53.1094 230.625 53.1094C227.928 53.1094 226.523 52.1738 225.287 51.3516C224.18 50.6172 223.238 49.9844 221.25 49.9844C220.939 49.9844 220.641 49.8609 220.421 49.6411C220.202 49.4214 220.078 49.1233 220.078 48.8125ZM259.922 56.625C259.922 56.9358 259.798 57.2339 259.579 57.4536C259.359 57.6734 259.061 57.7969 258.75 57.7969C256.762 57.7969 255.82 58.4297 254.713 59.1641C253.475 59.9883 252.072 60.9219 249.375 60.9219C246.678 60.9219 245.273 59.9863 244.037 59.1641C242.937 58.4316 241.988 57.7969 239.998 57.7969C238.008 57.7969 237.068 58.4297 235.961 59.1641C234.725 59.9883 233.322 60.9219 230.625 60.9219C227.928 60.9219 226.523 59.9863 225.287 59.1641C224.18 58.4297 223.238 57.7969 221.25 57.7969C220.939 57.7969 220.641 57.6734 220.421 57.4536C220.202 57.2339 220.078 56.9358 220.078 56.625C220.078 56.3142 220.202 56.0161 220.421 55.7964C220.641 55.5766 220.939 55.4531 221.25 55.4531C223.949 55.4531 225.352 56.3887 226.588 57.2109C227.688 57.9434 228.635 58.5781 230.625 58.5781C232.615 58.5781 233.555 57.9453 234.662 57.2109C235.898 56.3867 237.301 55.4531 239.998 55.4531C242.695 55.4531 244.1 56.3887 245.336 57.2109C246.436 57.9434 247.385 58.5781 249.375 58.5781C251.365 58.5781 252.305 57.9453 253.412 57.2109C254.648 56.3867 256.051 55.4531 258.75 55.4531C259.061 55.4531 259.359 55.5766 259.579 55.7964C259.798 56.0161 259.922 56.3142 259.922 56.625Z" fill="#343330"/>
<path d="M220.761 95V80.4545H225.676C226.817 80.4545 227.75 80.6605 228.474 81.0724C229.204 81.4796 229.743 82.0312 230.094 82.7273C230.444 83.4233 230.619 84.1998 230.619 85.0568C230.619 85.9138 230.444 86.6927 230.094 87.3935C229.748 88.0942 229.213 88.6529 228.489 89.0696C227.764 89.4815 226.836 89.6875 225.705 89.6875H222.182V88.125H225.648C226.429 88.125 227.056 87.9901 227.53 87.7202C228.003 87.4503 228.347 87.0857 228.56 86.6264C228.777 86.1624 228.886 85.6392 228.886 85.0568C228.886 84.4744 228.777 83.9536 228.56 83.4943C228.347 83.035 228.001 82.6752 227.523 82.4148C227.045 82.1496 226.41 82.017 225.619 82.017H222.523V95H220.761ZM237.544 95.2273C236.559 95.2273 235.695 94.9929 234.952 94.5241C234.213 94.0554 233.635 93.3996 233.219 92.5568C232.807 91.714 232.601 90.7292 232.601 89.6023C232.601 88.4659 232.807 87.474 233.219 86.6264C233.635 85.7789 234.213 85.1207 234.952 84.652C235.695 84.1832 236.559 83.9489 237.544 83.9489C238.529 83.9489 239.391 84.1832 240.129 84.652C240.873 85.1207 241.45 85.7789 241.862 86.6264C242.279 87.474 242.487 88.4659 242.487 89.6023C242.487 90.7292 242.279 91.714 241.862 92.5568C241.45 93.3996 240.873 94.0554 240.129 94.5241C239.391 94.9929 238.529 95.2273 237.544 95.2273ZM237.544 93.7216C238.292 93.7216 238.908 93.5298 239.391 93.1463C239.874 92.7628 240.231 92.2585 240.463 91.6335C240.695 91.0085 240.811 90.3314 240.811 89.6023C240.811 88.8731 240.695 88.1937 240.463 87.5639C240.231 86.9342 239.874 86.4252 239.391 86.0369C238.908 85.6487 238.292 85.4545 237.544 85.4545C236.796 85.4545 236.18 85.6487 235.697 86.0369C235.214 86.4252 234.857 86.9342 234.625 87.5639C234.393 88.1937 234.277 88.8731 234.277 89.6023C234.277 90.3314 234.393 91.0085 234.625 91.6335C234.857 92.2585 235.214 92.7628 235.697 93.1463C236.18 93.5298 236.796 93.7216 237.544 93.7216ZM249.478 95.2273C248.493 95.2273 247.629 94.9929 246.885 94.5241C246.147 94.0554 245.569 93.3996 245.152 92.5568C244.74 91.714 244.534 90.7292 244.534 89.6023C244.534 88.4659 244.74 87.474 245.152 86.6264C245.569 85.7789 246.147 85.1207 246.885 84.652C247.629 84.1832 248.493 83.9489 249.478 83.9489C250.462 83.9489 251.324 84.1832 252.063 84.652C252.806 85.1207 253.384 85.7789 253.796 86.6264C254.212 87.474 254.421 88.4659 254.421 89.6023C254.421 90.7292 254.212 91.714 253.796 92.5568C253.384 93.3996 252.806 94.0554 252.063 94.5241C251.324 94.9929 250.462 95.2273 249.478 95.2273ZM249.478 93.7216C250.226 93.7216 250.841 93.5298 251.324 93.1463C251.807 92.7628 252.165 92.2585 252.397 91.6335C252.629 91.0085 252.745 90.3314 252.745 89.6023C252.745 88.8731 252.629 88.1937 252.397 87.5639C252.165 86.9342 251.807 86.4252 251.324 86.0369C250.841 85.6487 250.226 85.4545 249.478 85.4545C248.73 85.4545 248.114 85.6487 247.631 86.0369C247.148 86.4252 246.791 86.9342 246.559 87.5639C246.327 88.1937 246.211 88.8731 246.211 89.6023C246.211 90.3314 246.327 91.0085 246.559 91.6335C246.791 92.2585 247.148 92.7628 247.631 93.1463C248.114 93.5298 248.73 93.7216 249.478 93.7216ZM258.656 80.4545V95H256.979V80.4545H258.656Z" fill="#222222"/>
<rect x="170.5" y="0.5" width="139" height="109" rx="9.5" stroke="#BCC0C4"/>
<rect x="340.5" y="0.5" width="139" height="109" rx="9.5" fill="white"/>
<path d="M427.969 33.3027L393.578 22.7559C393.171 22.6371 392.742 22.6147 392.325 22.6903C391.908 22.766 391.514 22.9376 391.174 23.1916C390.835 23.4456 390.559 23.7751 390.369 24.1541C390.179 24.533 390.079 24.951 390.078 25.375V53.5C390.078 54.2252 390.366 54.9207 390.879 55.4335C391.392 55.9463 392.087 56.2344 392.812 56.2344C393.077 56.2324 393.34 56.1936 393.594 56.1191L410.391 50.9609V53.5C410.391 54.2252 410.679 54.9207 411.192 55.4335C411.704 55.9463 412.4 56.2344 413.125 56.2344H419.375C420.1 56.2344 420.796 55.9463 421.308 55.4335C421.821 54.9207 422.109 54.2252 422.109 53.5V47.3711L427.969 45.5762C428.532 45.4059 429.026 45.059 429.378 44.5868C429.73 44.1146 429.92 43.5419 429.922 42.9531V35.9219C429.922 35.3332 429.731 34.7604 429.38 34.2885C429.028 33.8166 428.533 33.4709 427.969 33.3027ZM392.922 53.875C392.864 53.892 392.802 53.8952 392.743 53.8843C392.683 53.8735 392.627 53.8489 392.578 53.8125C392.53 53.7761 392.49 53.7289 392.463 53.6747C392.436 53.6205 392.422 53.5606 392.422 53.5V25.375C392.422 25.3144 392.436 25.2545 392.463 25.2003C392.49 25.1461 392.53 25.0989 392.578 25.0625C392.646 25.0124 392.728 24.9851 392.812 24.9844C392.845 24.9851 392.877 24.9904 392.908 25L410.391 30.3613V48.5156L392.922 53.875ZM419.766 53.5C419.766 53.6036 419.724 53.703 419.651 53.7762C419.578 53.8495 419.479 53.8906 419.375 53.8906H413.125C413.021 53.8906 412.922 53.8495 412.849 53.7762C412.776 53.703 412.734 53.6036 412.734 53.5V50.2481L419.766 48.0996V53.5ZM427.578 42.9531C427.578 43.0376 427.551 43.1199 427.5 43.1875C427.449 43.2551 427.378 43.3045 427.297 43.3281H427.281L412.734 47.7969V31.0801L427.297 35.5469C427.378 35.5705 427.449 35.6199 427.5 35.6875C427.551 35.7551 427.578 35.8374 427.578 35.9219V42.9531Z" fill="#343330"/>
<path d="M371.523 80.4545V95H369.761V80.4545H371.523ZM376.503 88.4375V95H374.827V84.0909H376.446V85.7955H376.588C376.844 85.2415 377.232 84.7964 377.753 84.4602C378.274 84.1193 378.946 83.9489 379.77 83.9489C380.509 83.9489 381.155 84.1004 381.709 84.4034C382.263 84.7017 382.694 85.1562 383.002 85.767C383.31 86.3731 383.463 87.1402 383.463 88.0682V95H381.787V88.1818C381.787 87.3248 381.565 86.6572 381.12 86.179C380.675 85.696 380.064 85.4545 379.287 85.4545C378.752 85.4545 378.274 85.5705 377.853 85.8026C377.436 86.0346 377.107 86.3731 376.865 86.8182C376.624 87.2633 376.503 87.803 376.503 88.4375ZM391.271 84.0909V85.5114H385.617V84.0909H391.271ZM387.265 81.4773H388.941V91.875C388.941 92.3485 389.01 92.7036 389.147 92.9403C389.289 93.1723 389.469 93.3286 389.687 93.4091C389.909 93.4848 390.144 93.5227 390.39 93.5227C390.575 93.5227 390.726 93.5133 390.844 93.4943C390.963 93.4706 391.058 93.4517 391.129 93.4375L391.469 94.9432C391.356 94.9858 391.197 95.0284 390.994 95.071C390.79 95.1184 390.532 95.142 390.219 95.142C389.746 95.142 389.282 95.0402 388.827 94.8366C388.378 94.633 388.004 94.3229 387.705 93.9062C387.412 93.4896 387.265 92.964 387.265 92.3295V81.4773ZM398.249 95.2273C397.197 95.2273 396.291 94.9953 395.528 94.5312C394.771 94.0625 394.186 93.4091 393.774 92.571C393.367 91.7282 393.163 90.7481 393.163 89.6307C393.163 88.5133 393.367 87.5284 393.774 86.6761C394.186 85.8191 394.759 85.1515 395.493 84.6733C396.232 84.1903 397.093 83.9489 398.078 83.9489C398.646 83.9489 399.207 84.0436 399.761 84.233C400.315 84.4223 400.82 84.7301 401.274 85.1562C401.729 85.5777 402.091 86.1364 402.361 86.8324C402.631 87.5284 402.766 88.3854 402.766 89.4034V90.1136H394.357V88.6648H401.061C401.061 88.0492 400.938 87.5 400.692 87.017C400.45 86.5341 400.105 86.1529 399.655 85.8736C399.21 85.5942 398.684 85.4545 398.078 85.4545C397.411 85.4545 396.833 85.6203 396.345 85.9517C395.862 86.2784 395.491 86.7045 395.23 87.2301C394.97 87.7557 394.839 88.3191 394.839 88.9205V89.8864C394.839 90.7102 394.982 91.4086 395.266 91.9815C395.554 92.5497 395.955 92.983 396.466 93.2812C396.977 93.5748 397.571 93.7216 398.249 93.7216C398.689 93.7216 399.087 93.66 399.442 93.5369C399.802 93.4091 400.112 93.2197 400.372 92.9688C400.633 92.7131 400.834 92.3958 400.976 92.017L402.595 92.4716C402.425 93.0208 402.138 93.5038 401.736 93.9205C401.333 94.3324 400.836 94.6544 400.244 94.8864C399.652 95.1136 398.987 95.2273 398.249 95.2273ZM405.315 95V84.0909H406.935V85.7386H407.048C407.247 85.1989 407.607 84.7609 408.128 84.4247C408.649 84.0885 409.236 83.9205 409.889 83.9205C410.012 83.9205 410.166 83.9228 410.351 83.9276C410.536 83.9323 410.675 83.9394 410.77 83.9489V85.6534C410.713 85.6392 410.583 85.6179 410.379 85.5895C410.18 85.5563 409.97 85.5398 409.747 85.5398C409.217 85.5398 408.743 85.651 408.327 85.8736C407.915 86.0914 407.588 86.3944 407.347 86.7827C407.11 87.1662 406.991 87.6042 406.991 88.0966V95H405.315ZM416.857 95.2273C415.834 95.2273 414.953 94.9858 414.214 94.5028C413.476 94.0199 412.908 93.3546 412.51 92.5071C412.112 91.6596 411.913 90.6913 411.913 89.6023C411.913 88.4943 412.117 87.5166 412.524 86.669C412.936 85.8168 413.509 85.1515 414.243 84.6733C414.982 84.1903 415.843 83.9489 416.828 83.9489C417.595 83.9489 418.286 84.0909 418.902 84.375C419.518 84.6591 420.022 85.0568 420.415 85.5682C420.808 86.0795 421.052 86.6761 421.146 87.358H419.47C419.342 86.8608 419.058 86.4205 418.618 86.0369C418.182 85.6487 417.595 85.4545 416.857 85.4545C416.203 85.4545 415.63 85.625 415.138 85.9659C414.65 86.3021 414.269 86.7779 413.994 87.3935C413.724 88.0043 413.589 88.7216 413.589 89.5455C413.589 90.3883 413.722 91.1222 413.987 91.7472C414.257 92.3722 414.636 92.8575 415.124 93.2031C415.616 93.5488 416.194 93.7216 416.857 93.7216C417.292 93.7216 417.688 93.6458 418.043 93.4943C418.398 93.3428 418.698 93.125 418.945 92.8409C419.191 92.5568 419.366 92.2159 419.47 91.8182H421.146C421.052 92.4621 420.817 93.0421 420.443 93.5582C420.074 94.0696 419.584 94.4768 418.973 94.7798C418.367 95.0781 417.661 95.2273 416.857 95.2273ZM428.028 95.2273C427.044 95.2273 426.179 94.9929 425.436 94.5241C424.697 94.0554 424.12 93.3996 423.703 92.5568C423.291 91.714 423.085 90.7292 423.085 89.6023C423.085 88.4659 423.291 87.474 423.703 86.6264C424.12 85.7789 424.697 85.1207 425.436 84.652C426.179 84.1832 427.044 83.9489 428.028 83.9489C429.013 83.9489 429.875 84.1832 430.614 84.652C431.357 85.1207 431.935 85.7789 432.347 86.6264C432.763 87.474 432.972 88.4659 432.972 89.6023C432.972 90.7292 432.763 91.714 432.347 92.5568C431.935 93.3996 431.357 94.0554 430.614 94.5241C429.875 94.9929 429.013 95.2273 428.028 95.2273ZM428.028 93.7216C428.777 93.7216 429.392 93.5298 429.875 93.1463C430.358 92.7628 430.715 92.2585 430.947 91.6335C431.179 91.0085 431.295 90.3314 431.295 89.6023C431.295 88.8731 431.179 88.1937 430.947 87.5639C430.715 86.9342 430.358 86.4252 429.875 86.0369C429.392 85.6487 428.777 85.4545 428.028 85.4545C427.28 85.4545 426.665 85.6487 426.182 86.0369C425.699 86.4252 425.341 86.9342 425.109 87.5639C424.877 88.1937 424.761 88.8731 424.761 89.6023C424.761 90.3314 424.877 91.0085 425.109 91.6335C425.341 92.2585 425.699 92.7628 426.182 93.1463C426.665 93.5298 427.28 93.7216 428.028 93.7216ZM435.53 95V84.0909H437.15V85.7955H437.292C437.519 85.2131 437.886 84.7609 438.392 84.4389C438.899 84.1122 439.507 83.9489 440.218 83.9489C440.937 83.9489 441.536 84.1122 442.015 84.4389C442.498 84.7609 442.874 85.2131 443.144 85.7955H443.257C443.537 85.232 443.956 84.7846 444.515 84.4531C445.073 84.117 445.743 83.9489 446.525 83.9489C447.5 83.9489 448.298 84.2543 448.918 84.8651C449.538 85.4711 449.848 86.4157 449.848 87.6989V95H448.172V87.6989C448.172 86.8939 447.952 86.3187 447.512 85.973C447.071 85.6274 446.553 85.4545 445.956 85.4545C445.189 85.4545 444.595 85.6866 444.174 86.1506C443.752 86.6098 443.542 87.1922 443.542 87.8977V95H441.837V87.5284C441.837 86.9081 441.636 86.4086 441.233 86.0298C440.831 85.6463 440.312 85.4545 439.678 85.4545C439.242 85.4545 438.835 85.5705 438.456 85.8026C438.082 86.0346 437.779 86.3565 437.547 86.7685C437.32 87.1757 437.206 87.6468 437.206 88.1818V95H435.53Z" fill="#222222"/>
<rect x="340.5" y="0.5" width="139" height="109" rx="9.5" stroke="#BCC0C4"/>
<rect x="510.5" y="0.5" width="139" height="109" rx="9.5" fill="white"/>
<path d="M600.312 53.8904H593.672V48.4217H598.75C598.928 48.4217 599.104 48.381 599.264 48.3029C599.424 48.2247 599.564 48.1111 599.674 47.9706C599.784 47.8301 599.86 47.6665 599.897 47.4922C599.933 47.3179 599.93 47.1374 599.887 46.9646L593.637 21.9646C593.573 21.7112 593.427 21.4863 593.221 21.3256C593.015 21.1649 592.761 21.0776 592.5 21.0776C592.239 21.0776 591.985 21.1649 591.779 21.3256C591.573 21.4863 591.427 21.7112 591.363 21.9646L585.113 46.9646C585.07 47.1374 585.067 47.3179 585.103 47.4922C585.14 47.6665 585.216 47.8301 585.326 47.9706C585.436 48.1111 585.576 48.2247 585.736 48.3029C585.896 48.381 586.072 48.4217 586.25 48.4217H591.328V53.8904H578.047V49.9842H580C580.311 49.9842 580.609 49.8607 580.829 49.6409C581.048 49.4212 581.172 49.1231 581.172 48.8123C581.172 48.5015 581.048 48.2034 580.829 47.9836C580.609 47.7639 580.311 47.6404 580 47.6404H578.047V43.7342H580C580.311 43.7342 580.609 43.6107 580.829 43.3909C581.048 43.1712 581.172 42.8731 581.172 42.5623C581.172 42.2515 581.048 41.9534 580.829 41.7336C580.609 41.5139 580.311 41.3904 580 41.3904H562.812C562.502 41.3904 562.204 41.5139 561.984 41.7336C561.764 41.9534 561.641 42.2515 561.641 42.5623C561.641 42.8731 561.764 43.1712 561.984 43.3909C562.204 43.6107 562.502 43.7342 562.812 43.7342H564.766V47.6404H562.812C562.502 47.6404 562.204 47.7639 561.984 47.9836C561.764 48.2034 561.641 48.5015 561.641 48.8123C561.641 49.1231 561.764 49.4212 561.984 49.6409C562.204 49.8607 562.502 49.9842 562.812 49.9842H564.766V53.8904H559.688C559.377 53.8904 559.079 54.0139 558.859 54.2336C558.639 54.4534 558.516 54.7515 558.516 55.0623C558.516 55.3731 558.639 55.6712 558.859 55.8909C559.079 56.1107 559.377 56.2342 559.688 56.2342H600.312C600.623 56.2342 600.921 56.1107 601.141 55.8909C601.361 55.6712 601.484 55.3731 601.484 55.0623C601.484 54.7515 601.361 54.4534 601.141 54.2336C600.921 54.0139 600.623 53.8904 600.312 53.8904ZM592.5 27.0818L597.25 46.0779H587.75L592.5 27.0818ZM567.109 43.7342H575.703V47.6404H567.109V43.7342ZM567.109 49.9842H575.703V53.8904H567.109V49.9842ZM577.656 34.3592C578.661 34.3592 579.642 34.0613 580.478 33.5033C581.313 32.9453 581.963 32.1523 582.348 31.2243C582.732 30.2964 582.833 29.2754 582.637 28.2903C582.441 27.3053 581.957 26.4004 581.247 25.6903C580.537 24.9801 579.632 24.4964 578.647 24.3005C577.662 24.1045 576.641 24.2051 575.713 24.5895C574.785 24.9738 573.992 25.6247 573.434 26.4598C572.876 27.2949 572.578 28.2767 572.578 29.281C572.578 30.6278 573.113 31.9195 574.065 32.8718C575.018 33.8241 576.309 34.3592 577.656 34.3592ZM577.656 26.5467C578.197 26.5467 578.726 26.707 579.175 27.0075C579.625 27.3079 579.976 27.735 580.182 28.2346C580.389 28.7343 580.444 29.2841 580.338 29.8145C580.233 30.3449 579.972 30.8321 579.59 31.2145C579.207 31.5969 578.72 31.8574 578.19 31.9629C577.659 32.0684 577.109 32.0142 576.61 31.8073C576.11 31.6003 575.683 31.2498 575.383 30.8002C575.082 30.3505 574.922 29.8218 574.922 29.281C574.922 28.5558 575.21 27.8603 575.723 27.3475C576.236 26.8347 576.931 26.5467 577.656 26.5467Z" fill="#343330"/>
<path d="M560.261 95V80.4545H565.176C566.317 80.4545 567.25 80.6605 567.974 81.0724C568.704 81.4796 569.243 82.0312 569.594 82.7273C569.944 83.4233 570.119 84.1998 570.119 85.0568C570.119 85.9138 569.944 86.6927 569.594 87.3935C569.248 88.0942 568.713 88.6529 567.989 89.0696C567.264 89.4815 566.336 89.6875 565.205 89.6875H561.682V88.125H565.148C565.929 88.125 566.556 87.9901 567.03 87.7202C567.503 87.4503 567.847 87.0857 568.06 86.6264C568.277 86.1624 568.386 85.6392 568.386 85.0568C568.386 84.4744 568.277 83.9536 568.06 83.4943C567.847 83.035 567.501 82.6752 567.023 82.4148C566.545 82.1496 565.91 82.017 565.119 82.017H562.023V95H560.261ZM575.94 95.2557C575.248 95.2557 574.621 95.1255 574.058 94.8651C573.494 94.5999 573.047 94.2188 572.715 93.7216C572.384 93.2197 572.218 92.6136 572.218 91.9034C572.218 91.2784 572.341 90.7718 572.587 90.3835C572.834 89.9905 573.163 89.6828 573.575 89.4602C573.987 89.2377 574.441 89.072 574.938 88.9631C575.44 88.8494 575.944 88.7595 576.451 88.6932C577.114 88.608 577.651 88.544 578.063 88.5014C578.48 88.4541 578.783 88.3759 578.972 88.267C579.166 88.1581 579.263 87.9687 579.263 87.6989V87.642C579.263 86.9413 579.072 86.3968 578.688 86.0085C578.309 85.6203 577.734 85.4261 576.962 85.4261C576.162 85.4261 575.535 85.6013 575.08 85.9517C574.626 86.3021 574.306 86.6761 574.121 87.0739L572.531 86.5057C572.815 85.8428 573.193 85.3267 573.667 84.9574C574.145 84.5833 574.666 84.3229 575.229 84.1761C575.798 84.0246 576.356 83.9489 576.906 83.9489C577.256 83.9489 577.658 83.9915 578.113 84.0767C578.572 84.1572 579.015 84.3253 579.441 84.581C579.872 84.8366 580.229 85.2225 580.513 85.7386C580.798 86.2547 580.94 86.946 580.94 87.8125V95H579.263V93.5227H579.178C579.065 93.7595 578.875 94.0128 578.61 94.2827C578.345 94.5526 577.992 94.7822 577.552 94.9716C577.112 95.161 576.574 95.2557 575.94 95.2557ZM576.195 93.75C576.858 93.75 577.417 93.6198 577.871 93.3594C578.331 93.099 578.676 92.7628 578.908 92.3509C579.145 91.9389 579.263 91.5057 579.263 91.0511V89.517C579.192 89.6023 579.036 89.6804 578.795 89.7514C578.558 89.8177 578.283 89.8769 577.971 89.929C577.663 89.9763 577.362 90.0189 577.069 90.0568C576.78 90.09 576.546 90.1184 576.366 90.142C575.93 90.1989 575.523 90.2912 575.144 90.419C574.77 90.5421 574.467 90.7292 574.235 90.9801C574.008 91.2263 573.894 91.5625 573.894 91.9886C573.894 92.571 574.11 93.0114 574.54 93.3097C574.976 93.6032 575.528 93.75 576.195 93.75ZM583.999 95V84.0909H585.618V85.7386H585.732C585.931 85.1989 586.291 84.7609 586.811 84.4247C587.332 84.0885 587.919 83.9205 588.573 83.9205C588.696 83.9205 588.85 83.9228 589.034 83.9276C589.219 83.9323 589.359 83.9394 589.453 83.9489V85.6534C589.397 85.6392 589.266 85.6179 589.063 85.5895C588.864 85.5563 588.653 85.5398 588.431 85.5398C587.9 85.5398 587.427 85.651 587.01 85.8736C586.598 86.0914 586.272 86.3944 586.03 86.7827C585.793 87.1662 585.675 87.6042 585.675 88.0966V95H583.999ZM593.003 91.0227L592.974 88.9489H593.315L598.088 84.0909H600.162L595.077 89.233H594.935L593.003 91.0227ZM591.44 95V80.4545H593.116V95H591.44ZM598.372 95L594.111 89.6023L595.304 88.4375L600.503 95H598.372Z" fill="#222222"/>
<rect x="510.5" y="0.5" width="139" height="109" rx="9.5" stroke="#BCC0C4"/>
<rect x="680.5" y="0.5" width="139" height="109" rx="9.5" fill="white"/>
<path d="M758.9 39.002C759.016 39.2905 759.012 39.6131 758.89 39.8988C758.767 40.1845 758.537 40.4099 758.248 40.5254L751.855 43.082L755.625 48.1094C755.811 48.358 755.892 48.6706 755.848 48.9782C755.804 49.2859 755.639 49.5635 755.391 49.75C755.142 49.9365 754.829 50.0166 754.522 49.9726C754.214 49.9286 753.936 49.7643 753.75 49.5156L750 44.5156L746.25 49.5156C746.158 49.6387 746.042 49.7425 745.91 49.8209C745.777 49.8993 745.631 49.9508 745.478 49.9726C745.326 49.9944 745.171 49.9859 745.022 49.9477C744.873 49.9095 744.732 49.8423 744.609 49.75C744.486 49.6577 744.383 49.542 744.304 49.4096C744.226 49.2771 744.174 49.1306 744.152 48.9782C744.131 48.8259 744.139 48.6707 744.177 48.5217C744.215 48.3726 744.283 48.2325 744.375 48.1094L748.145 43.082L741.752 40.5254C741.466 40.4082 741.238 40.1827 741.117 39.898C740.996 39.6133 740.993 39.2924 741.108 39.0053C741.223 38.7183 741.447 38.4883 741.731 38.3655C742.014 38.2426 742.335 38.2369 742.623 38.3496L748.828 40.832V34.75C748.828 34.4392 748.952 34.1411 749.171 33.9214C749.391 33.7016 749.689 33.5781 750 33.5781C750.311 33.5781 750.609 33.7016 750.829 33.9214C751.048 34.1411 751.172 34.4392 751.172 34.75V40.832L757.377 38.3496C757.665 38.2341 757.988 38.2379 758.274 38.3603C758.559 38.4826 758.785 38.7134 758.9 39.002ZM768.359 26.9375V38.416C768.359 55.6523 753.773 61.3691 750.85 62.3398C750.299 62.5274 749.701 62.5274 749.15 62.3398C746.227 61.373 731.641 55.6484 731.641 38.4199V26.9375C731.641 26.2123 731.929 25.5168 732.442 25.004C732.954 24.4912 733.65 24.2031 734.375 24.2031H765.625C766.35 24.2031 767.046 24.4912 767.558 25.004C768.071 25.5168 768.359 26.2123 768.359 26.9375ZM766.016 26.9375C766.016 26.8339 765.974 26.7345 765.901 26.6613C765.828 26.588 765.729 26.5469 765.625 26.5469H734.375C734.271 26.5469 734.172 26.588 734.099 26.6613C734.026 26.7345 733.984 26.8339 733.984 26.9375V38.416C733.984 54.041 747.234 59.2344 749.889 60.1152C749.96 60.1426 750.038 60.1426 750.109 60.1152C752.766 59.2344 766.016 54.043 766.016 38.416V26.9375Z" fill="#343330"/>
<path d="M720.716 84.0909C720.631 83.3712 720.285 82.8125 719.679 82.4148C719.073 82.017 718.33 81.8182 717.449 81.8182C716.805 81.8182 716.241 81.9223 715.759 82.1307C715.28 82.339 714.906 82.6255 714.636 82.9901C714.371 83.3546 714.239 83.7689 714.239 84.233C714.239 84.6212 714.331 84.955 714.516 85.2344C714.705 85.509 714.946 85.7386 715.24 85.9233C715.534 86.1032 715.841 86.2524 716.163 86.3707C716.485 86.4844 716.781 86.5767 717.051 86.6477L718.528 87.0455C718.907 87.1449 719.329 87.2822 719.793 87.4574C720.261 87.6326 720.709 87.8717 721.135 88.1747C721.566 88.473 721.921 88.8565 722.2 89.3253C722.48 89.794 722.619 90.3693 722.619 91.0511C722.619 91.8371 722.413 92.5473 722.001 93.1818C721.594 93.8163 720.998 94.3205 720.212 94.6946C719.43 95.0687 718.481 95.2557 717.364 95.2557C716.322 95.2557 715.42 95.0876 714.658 94.7514C713.9 94.4152 713.304 93.9465 712.868 93.3452C712.437 92.7438 712.193 92.0455 712.136 91.25H713.955C714.002 91.7992 714.187 92.2538 714.509 92.6136C714.835 92.9687 715.247 93.2339 715.744 93.4091C716.246 93.5795 716.786 93.6648 717.364 93.6648C718.036 93.6648 718.64 93.5559 719.175 93.3381C719.71 93.1155 720.134 92.8078 720.446 92.4148C720.759 92.017 720.915 91.553 720.915 91.0227C720.915 90.5398 720.78 90.1468 720.51 89.8438C720.24 89.5407 719.885 89.2945 719.445 89.1051C719.004 88.9157 718.528 88.75 718.017 88.608L716.227 88.0966C715.091 87.7699 714.191 87.3035 713.528 86.6974C712.866 86.0914 712.534 85.2983 712.534 84.3182C712.534 83.5038 712.754 82.7936 713.195 82.1875C713.64 81.5767 714.236 81.1032 714.984 80.767C715.737 80.4261 716.578 80.2557 717.506 80.2557C718.443 80.2557 719.277 80.4238 720.006 80.7599C720.735 81.0914 721.313 81.5459 721.739 82.1236C722.17 82.7012 722.397 83.357 722.42 84.0909H720.716ZM729.862 95.2273C728.811 95.2273 727.904 94.9953 727.142 94.5312C726.384 94.0625 725.799 93.4091 725.387 92.571C724.98 91.7282 724.777 90.7481 724.777 89.6307C724.777 88.5133 724.98 87.5284 725.387 86.6761C725.799 85.8191 726.372 85.1515 727.106 84.6733C727.845 84.1903 728.707 83.9489 729.691 83.9489C730.26 83.9489 730.821 84.0436 731.375 84.233C731.929 84.4223 732.433 84.7301 732.887 85.1562C733.342 85.5777 733.704 86.1364 733.974 86.8324C734.244 87.5284 734.379 88.3854 734.379 89.4034V90.1136H725.97V88.6648H732.674C732.674 88.0492 732.551 87.5 732.305 87.017C732.064 86.5341 731.718 86.1529 731.268 85.8736C730.823 85.5942 730.297 85.4545 729.691 85.4545C729.024 85.4545 728.446 85.6203 727.958 85.9517C727.475 86.2784 727.104 86.7045 726.843 87.2301C726.583 87.7557 726.453 88.3191 726.453 88.9205V89.8864C726.453 90.7102 726.595 91.4086 726.879 91.9815C727.168 92.5497 727.568 92.983 728.079 93.2812C728.591 93.5748 729.185 93.7216 729.862 93.7216C730.302 93.7216 730.7 93.66 731.055 93.5369C731.415 93.4091 731.725 93.2197 731.985 92.9688C732.246 92.7131 732.447 92.3958 732.589 92.017L734.208 92.4716C734.038 93.0208 733.752 93.5038 733.349 93.9205C732.947 94.3324 732.449 94.6544 731.858 94.8864C731.266 95.1136 730.6 95.2273 729.862 95.2273ZM741.36 95.2273C740.338 95.2273 739.457 94.9858 738.718 94.5028C737.98 94.0199 737.412 93.3546 737.014 92.5071C736.616 91.6596 736.417 90.6913 736.417 89.6023C736.417 88.4943 736.621 87.5166 737.028 86.669C737.44 85.8168 738.013 85.1515 738.747 84.6733C739.485 84.1903 740.347 83.9489 741.332 83.9489C742.099 83.9489 742.79 84.0909 743.406 84.375C744.021 84.6591 744.526 85.0568 744.919 85.5682C745.312 86.0795 745.556 86.6761 745.65 87.358H743.974C743.846 86.8608 743.562 86.4205 743.122 86.0369C742.686 85.6487 742.099 85.4545 741.36 85.4545C740.707 85.4545 740.134 85.625 739.642 85.9659C739.154 86.3021 738.773 86.7779 738.498 87.3935C738.228 88.0043 738.093 88.7216 738.093 89.5455C738.093 90.3883 738.226 91.1222 738.491 91.7472C738.761 92.3722 739.14 92.8575 739.627 93.2031C740.12 93.5488 740.698 93.7216 741.36 93.7216C741.796 93.7216 742.191 93.6458 742.547 93.4943C742.902 93.3428 743.202 93.125 743.449 92.8409C743.695 92.5568 743.87 92.2159 743.974 91.8182H745.65C745.556 92.4621 745.321 93.0421 744.947 93.5582C744.578 94.0696 744.088 94.4768 743.477 94.7798C742.871 95.0781 742.165 95.2273 741.36 95.2273ZM754.975 90.5398V84.0909H756.652V95H754.975V93.1534H754.862C754.606 93.7074 754.208 94.1785 753.669 94.5668C753.129 94.9503 752.447 95.142 751.623 95.142C750.941 95.142 750.335 94.9929 749.805 94.6946C749.275 94.3916 748.858 93.937 748.555 93.331C748.252 92.7202 748.1 91.9508 748.1 91.0227V84.0909H749.777V90.9091C749.777 91.7045 749.999 92.339 750.444 92.8125C750.894 93.286 751.467 93.5227 752.163 93.5227C752.58 93.5227 753.003 93.4162 753.434 93.2031C753.87 92.9901 754.234 92.6634 754.528 92.223C754.826 91.7827 754.975 91.2216 754.975 90.5398ZM759.722 95V84.0909H761.341V85.7386H761.455C761.653 85.1989 762.013 84.7609 762.534 84.4247C763.055 84.0885 763.642 83.9205 764.295 83.9205C764.419 83.9205 764.572 83.9228 764.757 83.9276C764.942 83.9323 765.081 83.9394 765.176 83.9489V85.6534C765.119 85.6392 764.989 85.6179 764.786 85.5895C764.587 85.5563 764.376 85.5398 764.153 85.5398C763.623 85.5398 763.15 85.651 762.733 85.8736C762.321 86.0914 761.994 86.3944 761.753 86.7827C761.516 87.1662 761.398 87.6042 761.398 88.0966V95H759.722ZM767.163 95V84.0909H768.839V95H767.163ZM768.015 82.2727C767.689 82.2727 767.407 82.1615 767.17 81.9389C766.938 81.7164 766.822 81.4489 766.822 81.1364C766.822 80.8239 766.938 80.5563 767.17 80.3338C767.407 80.1113 767.689 80 768.015 80C768.342 80 768.621 80.1113 768.853 80.3338C769.09 80.5563 769.208 80.8239 769.208 81.1364C769.208 81.4489 769.09 81.7164 768.853 81.9389C768.621 82.1615 768.342 82.2727 768.015 82.2727ZM776.653 84.0909V85.5114H771V84.0909H776.653ZM772.648 81.4773H774.324V91.875C774.324 92.3485 774.393 92.7036 774.53 92.9403C774.672 93.1723 774.852 93.3286 775.07 93.4091C775.292 93.4848 775.527 93.5227 775.773 93.5227C775.957 93.5227 776.109 93.5133 776.227 93.4943C776.346 93.4706 776.44 93.4517 776.511 93.4375L776.852 94.9432C776.739 94.9858 776.58 95.0284 776.376 95.071C776.173 95.1184 775.915 95.142 775.602 95.142C775.129 95.142 774.665 95.0402 774.21 94.8366C773.76 94.633 773.386 94.3229 773.088 93.9062C772.795 93.4896 772.648 92.964 772.648 92.3295V81.4773ZM780.254 99.0909C779.97 99.0909 779.717 99.0672 779.494 99.0199C779.272 98.9773 779.118 98.9347 779.033 98.892L779.459 97.4148C779.866 97.5189 780.226 97.5568 780.538 97.5284C780.851 97.5 781.128 97.3603 781.369 97.1094C781.616 96.8632 781.84 96.4631 782.044 95.9091L782.357 95.0568L778.322 84.0909H780.141L783.152 92.7841H783.266L786.277 84.0909H788.095L783.464 96.5909C783.256 97.1544 782.998 97.6207 782.69 97.9901C782.383 98.3641 782.025 98.6411 781.618 98.821C781.215 99.0009 780.761 99.0909 780.254 99.0909Z" fill="#222222"/>
<rect x="680.5" y="0.5" width="139" height="109" rx="9.5" stroke="#BCC0C4"/>
<rect x="850.5" y="0.5" width="139" height="109" rx="9.5" fill="white"/>
<path d="M921.17 39.4373V50.3748C921.17 50.6856 921.047 50.9837 920.827 51.2034C920.607 51.4232 920.309 51.5467 919.999 51.5467C919.688 51.5467 919.39 51.4232 919.17 51.2034C918.95 50.9837 918.827 50.6856 918.827 50.3748V39.4373C918.827 39.1265 918.95 38.8284 919.17 38.6086C919.39 38.3889 919.688 38.2654 919.999 38.2654C920.309 38.2654 920.607 38.3889 920.827 38.6086C921.047 38.8284 921.17 39.1265 921.17 39.4373ZM941.46 35.1111L938.749 55.4236C938.661 56.0802 938.338 56.6826 937.84 57.1191C937.342 57.5555 936.702 57.7963 936.04 57.7967H903.958C903.295 57.7963 902.655 57.5555 902.157 57.1191C901.659 56.6826 901.336 56.0802 901.249 55.4236L898.54 35.1111C898.488 34.725 898.52 34.3324 898.632 33.9596C898.745 33.5867 898.936 33.2422 899.192 32.9491C899.449 32.656 899.765 32.4211 900.12 32.26C900.474 32.099 900.859 32.0156 901.249 32.0154H908.53L919.116 19.9158C919.226 19.7911 919.361 19.6912 919.513 19.6228C919.664 19.5544 919.828 19.519 919.995 19.519C920.161 19.519 920.325 19.5544 920.477 19.6228C920.628 19.6912 920.764 19.7911 920.874 19.9158L931.46 32.0252H938.749C939.138 32.0254 939.523 32.1088 939.878 32.2698C940.232 32.4308 940.548 32.6657 940.805 32.9589C941.061 33.252 941.252 33.5965 941.365 33.9693C941.477 34.3422 941.509 34.7348 941.458 35.1209L941.46 35.1111ZM911.643 32.0154H928.354L919.999 22.4666L911.643 32.0154ZM939.042 34.492C939.005 34.4503 938.96 34.4169 938.909 34.394C938.859 34.3711 938.804 34.3592 938.749 34.3592H901.249C901.193 34.3589 901.138 34.3707 901.087 34.3936C901.036 34.4165 900.99 34.4501 900.954 34.492C900.917 34.5336 900.889 34.5827 900.872 34.6359C900.856 34.6891 900.851 34.7453 900.858 34.8006L903.565 55.1131C903.578 55.2073 903.625 55.2936 903.696 55.3558C903.768 55.418 903.861 55.4518 903.956 55.451H936.04C936.135 55.4518 936.227 55.418 936.299 55.3558C936.371 55.2936 936.417 55.2073 936.43 55.1131L939.139 34.8006C939.147 34.7451 939.142 34.6886 939.125 34.6352C939.108 34.5819 939.08 34.5329 939.042 34.492ZM930.428 38.2654C930.275 38.25 930.12 38.2649 929.973 38.3093C929.826 38.3537 929.689 38.4267 929.569 38.5241C929.45 38.6214 929.351 38.7414 929.279 38.8769C929.206 39.0125 929.16 39.1611 929.145 39.3142L928.051 50.2517C928.034 50.4058 928.048 50.5617 928.092 50.7104C928.135 50.8591 928.208 50.9977 928.305 51.1181C928.403 51.2385 928.523 51.3384 928.66 51.412C928.796 51.4855 928.946 51.5313 929.1 51.5467H929.219C929.511 51.5481 929.792 51.4409 930.009 51.2458C930.226 51.0508 930.362 50.782 930.391 50.492L931.485 39.5545C931.501 39.4003 931.487 39.2444 931.442 39.0959C931.398 38.9474 931.324 38.8092 931.226 38.6893C931.127 38.5694 931.006 38.4702 930.869 38.3975C930.733 38.3247 930.583 38.2798 930.428 38.2654ZM910.852 39.3201C910.821 39.0108 910.668 38.7266 910.428 38.5299C910.187 38.3332 909.878 38.2402 909.569 38.2713C909.26 38.3023 908.975 38.455 908.779 38.6956C908.582 38.9363 908.489 39.2452 908.52 39.5545L909.614 50.492C909.643 50.782 909.779 51.0508 909.996 51.2458C910.213 51.4409 910.494 51.5481 910.786 51.5467H910.905C911.058 51.5313 911.207 51.4859 911.342 51.4131C911.478 51.3402 911.598 51.2414 911.695 51.1223C911.792 51.0031 911.865 50.8659 911.91 50.7186C911.954 50.5712 911.969 50.4166 911.954 50.2634L910.852 39.3201Z" fill="#343330"/>
<path d="M898.716 84.0909C898.631 83.3712 898.285 82.8125 897.679 82.4148C897.073 82.017 896.33 81.8182 895.449 81.8182C894.805 81.8182 894.241 81.9223 893.759 82.1307C893.28 82.339 892.906 82.6255 892.636 82.9901C892.371 83.3546 892.239 83.7689 892.239 84.233C892.239 84.6212 892.331 84.955 892.516 85.2344C892.705 85.509 892.946 85.7386 893.24 85.9233C893.534 86.1032 893.841 86.2524 894.163 86.3707C894.485 86.4844 894.781 86.5767 895.051 86.6477L896.528 87.0455C896.907 87.1449 897.329 87.2822 897.793 87.4574C898.261 87.6326 898.709 87.8717 899.135 88.1747C899.566 88.473 899.921 88.8565 900.2 89.3253C900.48 89.794 900.619 90.3693 900.619 91.0511C900.619 91.8371 900.413 92.5473 900.001 93.1818C899.594 93.8163 898.998 94.3205 898.212 94.6946C897.43 95.0687 896.481 95.2557 895.364 95.2557C894.322 95.2557 893.42 95.0876 892.658 94.7514C891.9 94.4152 891.304 93.9465 890.868 93.3452C890.437 92.7438 890.193 92.0455 890.136 91.25H891.955C892.002 91.7992 892.187 92.2538 892.509 92.6136C892.835 92.9687 893.247 93.2339 893.744 93.4091C894.246 93.5795 894.786 93.6648 895.364 93.6648C896.036 93.6648 896.64 93.5559 897.175 93.3381C897.71 93.1155 898.134 92.8078 898.446 92.4148C898.759 92.017 898.915 91.553 898.915 91.0227C898.915 90.5398 898.78 90.1468 898.51 89.8438C898.24 89.5407 897.885 89.2945 897.445 89.1051C897.004 88.9157 896.528 88.75 896.017 88.608L894.227 88.0966C893.091 87.7699 892.191 87.3035 891.528 86.6974C890.866 86.0914 890.534 85.2983 890.534 84.3182C890.534 83.5038 890.754 82.7936 891.195 82.1875C891.64 81.5767 892.236 81.1032 892.984 80.767C893.737 80.4261 894.578 80.2557 895.506 80.2557C896.443 80.2557 897.277 80.4238 898.006 80.7599C898.735 81.0914 899.313 81.5459 899.739 82.1236C900.17 82.7012 900.397 83.357 900.42 84.0909H898.716ZM908.032 84.0909V85.5114H902.379V84.0909H908.032ZM904.027 81.4773H905.703V91.875C905.703 92.3485 905.771 92.7036 905.909 92.9403C906.051 93.1723 906.231 93.3286 906.449 93.4091C906.671 93.4848 906.905 93.5227 907.152 93.5227C907.336 93.5227 907.488 93.5133 907.606 93.4943C907.725 93.4706 907.819 93.4517 907.89 93.4375L908.231 94.9432C908.118 94.9858 907.959 95.0284 907.755 95.071C907.552 95.1184 907.294 95.142 906.981 95.142C906.508 95.142 906.044 95.0402 905.589 94.8366C905.139 94.633 904.765 94.3229 904.467 93.9062C904.173 93.4896 904.027 92.964 904.027 92.3295V81.4773ZM914.868 95.2273C913.883 95.2273 913.019 94.9929 912.276 94.5241C911.537 94.0554 910.96 93.3996 910.543 92.5568C910.131 91.714 909.925 90.7292 909.925 89.6023C909.925 88.4659 910.131 87.474 910.543 86.6264C910.96 85.7789 911.537 85.1207 912.276 84.652C913.019 84.1832 913.883 83.9489 914.868 83.9489C915.853 83.9489 916.715 84.1832 917.453 84.652C918.197 85.1207 918.775 85.7789 919.186 86.6264C919.603 87.474 919.811 88.4659 919.811 89.6023C919.811 90.7292 919.603 91.714 919.186 92.5568C918.775 93.3996 918.197 94.0554 917.453 94.5241C916.715 94.9929 915.853 95.2273 914.868 95.2273ZM914.868 93.7216C915.616 93.7216 916.232 93.5298 916.715 93.1463C917.198 92.7628 917.555 92.2585 917.787 91.6335C918.019 91.0085 918.135 90.3314 918.135 89.6023C918.135 88.8731 918.019 88.1937 917.787 87.5639C917.555 86.9342 917.198 86.4252 916.715 86.0369C916.232 85.6487 915.616 85.4545 914.868 85.4545C914.12 85.4545 913.505 85.6487 913.022 86.0369C912.539 86.4252 912.181 86.9342 911.949 87.5639C911.717 88.1937 911.601 88.8731 911.601 89.6023C911.601 90.3314 911.717 91.0085 911.949 91.6335C912.181 92.2585 912.539 92.7628 913.022 93.1463C913.505 93.5298 914.12 93.7216 914.868 93.7216ZM922.37 95V84.0909H923.989V85.7386H924.103C924.302 85.1989 924.662 84.7609 925.183 84.4247C925.703 84.0885 926.29 83.9205 926.944 83.9205C927.067 83.9205 927.221 83.9228 927.406 83.9276C927.59 83.9323 927.73 83.9394 927.825 83.9489V85.6534C927.768 85.6392 927.638 85.6179 927.434 85.5895C927.235 85.5563 927.024 85.5398 926.802 85.5398C926.272 85.5398 925.798 85.651 925.381 85.8736C924.969 86.0914 924.643 86.3944 924.401 86.7827C924.165 87.1662 924.046 87.6042 924.046 88.0966V95H922.37ZM934.053 95.2273C933.002 95.2273 932.095 94.9953 931.333 94.5312C930.576 94.0625 929.991 93.4091 929.579 92.571C929.172 91.7282 928.968 90.7481 928.968 89.6307C928.968 88.5133 929.172 87.5284 929.579 86.6761C929.991 85.8191 930.564 85.1515 931.298 84.6733C932.036 84.1903 932.898 83.9489 933.883 83.9489C934.451 83.9489 935.012 84.0436 935.566 84.233C936.12 84.4223 936.624 84.7301 937.079 85.1562C937.533 85.5777 937.896 86.1364 938.165 86.8324C938.435 87.5284 938.57 88.3854 938.57 89.4034V90.1136H930.161V88.6648H936.866C936.866 88.0492 936.743 87.5 936.496 87.017C936.255 86.5341 935.909 86.1529 935.46 85.8736C935.014 85.5942 934.489 85.4545 933.883 85.4545C933.215 85.4545 932.638 85.6203 932.15 85.9517C931.667 86.2784 931.295 86.7045 931.035 87.2301C930.774 87.7557 930.644 88.3191 930.644 88.9205V89.8864C930.644 90.7102 930.786 91.4086 931.07 91.9815C931.359 92.5497 931.759 92.983 932.271 93.2812C932.782 93.5748 933.376 93.7216 934.053 93.7216C934.494 93.7216 934.891 93.66 935.246 93.5369C935.606 93.4091 935.916 93.2197 936.177 92.9688C936.437 92.7131 936.638 92.3958 936.781 92.017L938.4 92.4716C938.229 93.0208 937.943 93.5038 937.54 93.9205C937.138 94.3324 936.641 94.6544 936.049 94.8864C935.457 95.1136 934.792 95.2273 934.053 95.2273ZM948.847 86.5341L947.342 86.9602C947.247 86.7093 947.107 86.4654 946.923 86.2287C946.743 85.9872 946.496 85.7884 946.184 85.6321C945.871 85.4759 945.471 85.3977 944.984 85.3977C944.316 85.3977 943.76 85.5516 943.315 85.8594C942.874 86.1624 942.654 86.5483 942.654 87.017C942.654 87.4337 942.806 87.7628 943.109 88.0043C943.412 88.2457 943.885 88.447 944.529 88.608L946.148 89.0057C947.124 89.2424 947.851 89.6046 948.329 90.0923C948.807 90.5753 949.046 91.1979 949.046 91.9602C949.046 92.5852 948.866 93.1439 948.506 93.6364C948.151 94.1288 947.654 94.517 947.015 94.8011C946.376 95.0852 945.632 95.2273 944.785 95.2273C943.672 95.2273 942.751 94.9858 942.022 94.5028C941.293 94.0199 940.831 93.3144 940.637 92.3864L942.228 91.9886C942.379 92.5758 942.666 93.0161 943.087 93.3097C943.513 93.6032 944.07 93.75 944.756 93.75C945.538 93.75 946.158 93.5843 946.617 93.2528C947.081 92.9167 947.313 92.5142 947.313 92.0455C947.313 91.6667 947.181 91.3494 946.915 91.0938C946.65 90.8333 946.243 90.6392 945.694 90.5114L943.876 90.0852C942.877 89.8485 942.143 89.4815 941.674 88.9844C941.21 88.4825 940.978 87.8551 940.978 87.1023C940.978 86.4867 941.151 85.9422 941.496 85.4688C941.847 84.9953 942.323 84.6236 942.924 84.3537C943.53 84.0838 944.217 83.9489 944.984 83.9489C946.063 83.9489 946.911 84.1856 947.526 84.6591C948.147 85.1326 948.587 85.7576 948.847 86.5341Z" fill="#222222"/>
<rect x="850.5" y="0.5" width="139" height="109" rx="9.5" stroke="#BCC0C4"/>
</svg>
